# xmcd
#
# Track frame offsets: 
#        150
#        18402
#        36583
#        51962
#        72795
#        93340
#        110359
#        125819
#        142639
#        159862
#        176557
#        197301
#
# Disc length: 2780 seconds
#
# Revision: 0
# Processed by: cddbd v1.5.2PL0 Copyright (c) Steve Scherf et al.
# Submitted via: ExactAudioCopyFreeDBPlugin 1.0
#
DISCID=990ada0c
DTITLE=Israel Nash Gripka - New York Town
DYEAR=2009
DGENRE=Alternative country
TTITLE0=Evening
TTITLE1=Pray for Rain
TTITLE2=Let it Go
TTITLE3=Bricks
TTITLE4=You Were Right
TTITLE5=Confess
TTITLE6=Either Way
TTITLE7=Let Me Down
TTITLE8=Concrete
TTITLE9=Don't Run
TTITLE10=Pink Long-Stem Rose
TTITLE11=Beautiful
EXTD=
EXTT0=
EXTT1=
EXTT2=
EXTT3=
EXTT4=
EXTT5=
EXTT6=
EXTT7=
EXTT8=
EXTT9=
EXTT10=
EXTT11=
PLAYORDER=
